<?xml version="1.0" encoding="utf-8"?>
<!-- Generator: Adobe Illustrator 13.0.2, SVG Export Plug-In . SVG Version: 6.00 Build 14948)  -->
<!DOCTYPE svg PUBLIC "-//W3C//DTD SVG 1.1//EN" "http://www.w3.org/Graphics/SVG/1.1/DTD/svg11.dtd">
<svg version="1.1"
	 id="svg3004" xmlns:cc="http://creativecommons.org/ns#" sodipodi:docname="spacers.dxf" xmlns:inkscape="http://www.inkscape.org/namespaces/inkscape" xmlns:rdf="http://www.w3.org/1999/02/22-rdf-syntax-ns#" inkscape:version="0.48.2 r9819" xmlns:sodipodi="http://sodipodi.sourceforge.net/DTD/sodipodi-0.dtd" xmlns:dc="http://purl.org/dc/elements/1.1/" xmlns:svg="http://www.w3.org/2000/svg"
	 xmlns="http://www.w3.org/2000/svg" xmlns:xlink="http://www.w3.org/1999/xlink" x="0px" y="0px" width="200.887px"
	 height="200.896px" viewBox="0 0 200.887 200.896" enable-background="new 0 0 200.887 200.896" xml:space="preserve">
<sodipodi:namedview  units="in" inkscape:window-y="0" inkscape:window-x="0" inkscape:cy="1011.0538" inkscape:cx="718.57614" inkscape:zoom="1.6481699" showgrid="false" inkscape:window-height="852" inkscape:window-width="1440" inkscape:pageshadow="2" inkscape:pageopacity="0" guidetolerance="10" pagecolor="#ffffff" objecttolerance="10" gridtolerance="10" bordercolor="#666666" borderopacity="1" id="namedview3006" inkscape:current-layer="g3012" inkscape:snap-object-midpoints="true" inkscape:window-maximized="1" inkscape:snap-midpoints="true">
	</sodipodi:namedview>
<path id="path4009" inkscape:connector-curvature="0" sodipodi:nodetypes="sccccsccccccccccccsccccs" fill="none" stroke="#000000" stroke-width="3.5433" d="
	M100.428,1.771c-21.75,0-41.846,7.047-58.156,18.969l27.422,30.261l-18,17.313L24.615,37.303
	C10.352,54.412,1.771,76.443,1.771,100.459c0,10.859,1.76,21.297,5,31.062l37.766-19.562l11.156,22.375l-38.547,19.094
	c17.438,27.359,48.001,45.531,82.812,45.688l-6.266-42.114l24.844-2.938l5.516,42.208c32.699-8.031,59.006-32.375,69.781-63.906
	l-44.808-9.364l5.562-24.375l44.183,10.021c0.222-2.703,0.344-5.438,0.344-8.188c0-32.422-15.647-61.203-39.781-79.188
	l-20.975,36.396l-21.594-12.594l21.537-35.771C126.64,4.443,113.848,1.771,100.428,1.771z"/>
<path id="path4092" sodipodi:cx="785.41663" sodipodi:rx="13.044772" sodipodi:type="arc" sodipodi:ry="13.044772" sodipodi:cy="144830.14" fill="none" stroke="#000000" stroke-width="3.5433" d="
	M113.488,100.428c0.005,7.203-5.832,13.047-13.036,13.047c-7.205,0.016-13.049-5.828-13.054-13.031v-0.016
	c-0.005-7.203,5.832-13.047,13.037-13.047c7.204-0.016,13.048,5.828,13.053,13.031V100.428z"/>
</svg>
